<svg width="18" height="18" viewBox="0 0 18 18" fill="none" xmlns="http://www.w3.org/2000/svg">
<style>
  .bag-inactive { stroke: #1A1A1A; }
  .bag-active { stroke: #FFFFFF; }
  .bag-hover { stroke: #FFFFFF; }
  
  /* Default state - show inactive */
  .bag-inactive { display: block; }
  .bag-active, .bag-hover { display: none; }
</style>
<path d="M5.66667 7.33333H3.16667L1.5 16.5H16.5L14.8333 7.33333H12.3333M5.66667 7.33333V4.83333C5.66667 2.99239 7.15905 1.5 9 1.5V1.5C10.8409 1.5 12.3333 2.99238 12.3333 4.83333V7.33333M5.66667 7.33333H12.3333M5.66667 7.33333V9.83333M12.3333 7.33333V9.83333" class="bag-inactive" stroke-width="1.3" stroke-linecap="round" stroke-linejoin="round"/>
<path d="M5.66667 7.33333H3.16667L1.5 16.5H16.5L14.8333 7.33333H12.3333M5.66667 7.33333V4.83333C5.66667 2.99239 7.15905 1.5 9 1.5V1.5C10.8409 1.5 12.3333 2.99238 12.3333 4.83333V7.33333M5.66667 7.33333H12.3333M5.66667 7.33333V9.83333M12.3333 7.33333V9.83333" class="bag-hover" stroke-width="1.3" stroke-linecap="round" stroke-linejoin="round"/>
<path d="M5.66667 7.33333H3.16667L1.5 16.5H16.5L14.8333 7.33333H12.3333M5.66667 7.33333V4.83333C5.66667 2.99239 7.15905 1.5 9 1.5V1.5C10.8409 1.5 12.3333 2.99238 12.3333 4.83333V7.33333M5.66667 7.33333H12.3333M5.66667 7.33333V9.83333M12.3333 7.33333V9.83333" class="bag-active" stroke-width="1.3" stroke-linecap="round" stroke-linejoin="round"/>
</svg>
