<svg width="20" height="16" viewBox="0 0 20 16" fill="none" xmlns="http://www.w3.org/2000/svg">
<style>
  .eye-inactive { stroke: #4D4D4D; }
  .eye-active { stroke: #FFFFFF; }
  .eye-hover { stroke: #FFFFFF; }
  
  /* Default state - show inactive */
  .eye-inactive { display: block; }
  .eye-active, .eye-hover { display: none; }
</style>
<path class="eye-inactive" d="M10 1.54103C3.75 1.54103 1.25 8.00008 1.25 8.00008C1.25 8.00008 3.75 14.4577 10 14.4577C16.25 14.4577 18.75 8.00008 18.75 8.00008C18.75 8.00008 16.25 1.54103 10 1.54103V1.54103Z" stroke-width="1.5" stroke-linecap="round" stroke-linejoin="round"/>
<path class="eye-inactive" d="M10 11.125C10.8288 11.125 11.6237 10.7958 12.2097 10.2097C12.7958 9.62366 13.125 8.8288 13.125 8C13.125 7.1712 12.7958 6.37634 12.2097 5.79029C11.6237 5.20424 10.8288 4.875 10 4.875C9.1712 4.875 8.37634 5.20424 7.79029 5.79029C7.20424 6.37634 6.875 7.1712 6.875 8C6.875 8.8288 7.20424 9.62366 7.79029 10.2097C8.37634 10.7958 9.1712 11.125 10 11.125V11.125Z" stroke-width="1.5" stroke-linecap="round" stroke-linejoin="round"/>
<path class="eye-hover" d="M10 1.54103C3.75 1.54103 1.25 8.00008 1.25 8.00008C1.25 8.00008 3.75 14.4577 10 14.4577C16.25 14.4577 18.75 8.00008 18.75 8.00008C18.75 8.00008 16.25 1.54103 10 1.54103V1.54103Z" stroke-width="1.5" stroke-linecap="round" stroke-linejoin="round"/>
<path class="eye-hover" d="M10 11.125C10.8288 11.125 11.6237 10.7958 12.2097 10.2097C12.7958 9.62366 13.125 8.8288 13.125 8C13.125 7.1712 12.7958 6.37634 12.2097 5.79029C11.6237 5.20424 10.8288 4.875 10 4.875C9.1712 4.875 8.37634 5.20424 7.79029 5.79029C7.20424 6.37634 6.875 7.1712 6.875 8C6.875 8.8288 7.20424 9.62366 7.79029 10.2097C8.37634 10.7958 9.1712 11.125 10 11.125V11.125Z" stroke-width="1.5" stroke-linecap="round" stroke-linejoin="round"/>
<path class="eye-active" d="M10 1.54103C3.75 1.54103 1.25 8.00008 1.25 8.00008C1.25 8.00008 3.75 14.4577 10 14.4577C16.25 14.4577 18.75 8.00008 18.75 8.00008C18.75 8.00008 16.25 1.54103 10 1.54103V1.54103Z" stroke-width="1.5" stroke-linecap="round" stroke-linejoin="round"/>
<path class="eye-active" d="M10 11.125C10.8288 11.125 11.6237 10.7958 12.2097 10.2097C12.7958 9.62366 13.125 8.8288 13.125 8C13.125 7.1712 12.7958 6.37634 12.2097 5.79029C11.6237 5.20424 10.8288 4.875 10 4.875C9.1712 4.875 8.37634 5.20424 7.79029 5.79029C7.20424 6.37634 6.875 7.1712 6.875 8C6.875 8.8288 7.20424 9.62366 7.79029 10.2097C8.37634 10.7958 9.1712 11.125 10 11.125V11.125Z" stroke-width="1.5" stroke-linecap="round" stroke-linejoin="round"/>
</svg>
